<svg width="3500" height="2183" viewBox="0 0 3500 2183" fill="none" xmlns="http://www.w3.org/2000/svg">
<g clip-path="url(#clip0_1_2)">
<path d="M464.133 2170C698.51 1855.79 546.324 1577.22 471.195 1204.62C287.092 611.201 1003.93 132.181 1720.81 595.808C2165.52 883.419 2580.74 592.305 2914.29 894.517C3179.56 1134.86 2915.4 1642.02 2909.67 1870.57C2905.16 2050.73 3060.22 2170 3060.22 2170L464.133 2170Z" fill="#C7EBFF"/>
<path d="M3204.71 2181.83H265.292C262.411 2181.83 260.075 2179.5 260.075 2176.62C260.075 2173.73 262.411 2171.4 265.292 2171.4H3204.71C3207.59 2171.4 3209.93 2173.73 3209.93 2176.62C3209.93 2179.5 3207.59 2181.83 3204.71 2181.83Z" fill="black"/>
<path d="M2750.02 2087.95C2817.21 2087.95 2871.68 2033.48 2871.68 1966.29V1800.44H2628.36V1966.29C2628.36 2033.48 2682.83 2087.95 2750.02 2087.95Z" fill="#6BB2E3"/>
<path d="M2871.68 2183.2H2885.16V1925.77H2871.68V2183.2Z" fill="#425899"/>
<path d="M2614.88 2183.2H2628.36V1925.77H2614.88V2183.2Z" fill="#425899"/>
<path d="M2718.07 2183.2H2731.55V1925.77H2718.07V2183.2Z" fill="#425899"/>
<path d="M2885.16 2101.43V2087.95H2627.74V2101.43H2885.16Z" fill="#425899"/>
<path d="M2709.55 1487.14C2732.28 1499.24 2714.32 1528.96 2723.63 1557.13C2732.93 1585.31 2770.34 1584.63 2756.21 1635.05C2747.51 1666.1 2716.69 1646.63 2717.39 1687.01C2718.1 1727.38 2733.39 1726.39 2721.52 1747.14C2700.84 1783.33 2630.34 1763.09 2629.79 1722.69C2629.23 1682.28 2663.05 1668.54 2634.48 1649.75C2605.9 1630.96 2594.47 1622.41 2613.28 1595.54C2636.56 1562.28 2672.65 1563.29 2662.55 1537.33C2652.46 1511.37 2679.49 1471.14 2709.55 1487.14Z" fill="#A3CFFF"/>
<path d="M2697.54 1799.52L2691.62 1801.22C2651.39 1661.02 2689.05 1529.01 2689.44 1527.7L2695.35 1529.43C2694.97 1530.73 2657.82 1661.1 2697.54 1799.52Z" fill="#425899"/>
<path d="M3011.2 1457.72C3027.98 1487.82 2986.21 1508.21 2976.22 1546.65C2966.23 1585.09 3011 1596.14 2958.5 1642.58C2926.17 1671.18 2918.24 1654.77 2908.98 1715.46C2900.82 1768.88 2858.03 1720.69 2829.62 1753.28C2792.96 1795.33 2727.82 1710.65 2756.53 1664.81C2785.24 1618.98 2822.04 1628.52 2803.55 1586.64C2785.07 1544.76 2802.77 1511.56 2843.42 1495C2893.74 1474.5 2914.43 1516.55 2921.92 1480.03C2929.42 1443.51 2989.02 1417.9 3011.2 1457.72Z" fill="#A1D3FF"/>
<path d="M2770.89 1800.26C2826.76 1615.67 2963.17 1496.15 2964.54 1494.96L2959.15 1488.72C2957.76 1489.92 2819.55 1611.02 2763 1797.87L2770.89 1800.26Z" fill="#425899"/>
<path d="M699.255 999.275C701.753 1014.43 710.174 1028.16 721.738 1038.08C733.302 1047.99 748.049 1054.15 763.198 1054.15H905.348C925.373 1054.15 941.127 1043.4 948.058 1027.36C951.604 1019.14 952.853 1009.55 951.161 999.276C948.663 984.126 940.242 970.387 928.718 960.475C917.114 950.563 902.407 944.397 887.258 944.397H745.107C738.096 944.397 731.609 945.727 725.848 948.105C706.669 956.082 695.427 975.986 699.255 999.275Z" fill="#61B8FF"/>
<path d="M898.154 1109.32C903.599 1109.32 907.463 1104.01 905.793 1098.83L886.702 1039.59C885.633 1036.27 882.547 1034.03 879.063 1034.03C873.618 1034.03 869.754 1039.33 871.424 1044.51L890.515 1103.76C891.583 1107.07 894.67 1109.32 898.154 1109.32Z" fill="#123E80"/>
<path d="M804.02 1109.32C809.465 1109.32 813.329 1104.01 811.659 1098.83L792.568 1039.59C791.499 1036.27 788.413 1034.03 784.929 1034.03C779.484 1034.03 775.62 1039.33 777.29 1044.51L796.381 1103.76C797.449 1107.07 800.536 1109.32 804.02 1109.32Z" fill="#123E80"/>
<path d="M722.785 976.107C725.283 991.257 733.704 1005 745.268 1014.95C756.832 1024.86 771.579 1031.03 786.729 1031.03H928.879C935.85 1031.03 942.296 1029.74 948.058 1027.36C951.604 1019.14 952.853 1009.55 951.161 999.276C948.663 984.126 940.242 970.387 928.718 960.475C917.114 950.563 902.407 944.397 887.258 944.397H745.107C738.096 944.397 731.609 945.727 725.848 948.105C722.342 956.324 721.093 965.872 722.785 976.107Z" fill="#9EDDFF"/>
<path d="M1329.31 2094.68H1302.52V2144.53H1329.31V2094.68Z" fill="#0D192B"/>
<path d="M1128.41 2094.68H1101.62V2144.53H1128.41V2094.68Z" fill="#0D192B"/>
<path d="M903.862 2094.68H877.075V2144.53H903.862V2094.68Z" fill="#0D192B"/>
<path d="M897.118 2176.68C908.401 2176.68 917.548 2162.22 917.548 2144.38C917.548 2126.54 908.401 2112.07 897.118 2112.07C885.835 2112.07 876.688 2126.54 876.688 2144.38C876.688 2162.22 885.835 2176.68 897.118 2176.68Z" fill="#0D192B"/>
<path d="M916.917 2176.68C928.2 2176.68 937.347 2162.22 937.347 2144.38C937.347 2126.54 928.2 2112.07 916.917 2112.07C905.634 2112.07 896.487 2126.54 896.487 2144.38C896.487 2162.22 905.634 2176.68 916.917 2176.68Z" fill="#0D192B"/>
<path d="M924.794 2174.07C916.295 2180.7 892.538 2177.69 889.216 2174.26L889.065 2114.67C895.441 2109.09 917.934 2109.29 924.784 2114.37L924.794 2174.07Z" fill="#0D192B"/>
<path d="M918.844 2165.64C926.576 2165.64 932.844 2155.73 932.844 2143.5C932.844 2131.28 926.576 2121.37 918.844 2121.37C911.112 2121.37 904.844 2131.28 904.844 2143.5C904.844 2155.73 911.112 2165.64 918.844 2165.64Z" fill="#1E62CC"/>
<path d="M917.362 2157.62C922.074 2157.62 925.893 2151.58 925.893 2144.14C925.893 2136.69 922.074 2130.65 917.362 2130.65C912.65 2130.65 908.831 2136.69 908.831 2144.14C908.831 2151.58 912.65 2157.62 917.362 2157.62Z" fill="#0D192B"/>
<path d="M1110.97 2176.68C1122.26 2176.68 1131.41 2162.22 1131.41 2144.38C1131.41 2126.54 1122.26 2112.07 1110.97 2112.07C1099.69 2112.07 1090.55 2126.54 1090.55 2144.38C1090.55 2162.22 1099.69 2176.68 1110.97 2176.68Z" fill="#0D192B"/>
<path d="M1091.18 2176.68C1102.46 2176.68 1111.61 2162.22 1111.61 2144.38C1111.61 2126.54 1102.46 2112.07 1091.18 2112.07C1079.89 2112.07 1070.75 2126.54 1070.75 2144.38C1070.75 2162.22 1079.89 2176.68 1091.18 2176.68Z" fill="#0D192B"/>
<path d="M1083.3 2174.07C1091.8 2180.7 1115.55 2177.69 1118.88 2174.26L1119.03 2114.67C1112.65 2109.09 1090.16 2109.29 1083.31 2114.37L1083.3 2174.07Z" fill="#0D192B"/>
<path d="M1089.25 2165.64C1096.98 2165.64 1103.25 2155.73 1103.25 2143.5C1103.25 2131.28 1096.98 2121.37 1089.25 2121.37C1081.52 2121.37 1075.25 2131.28 1075.25 2143.5C1075.25 2155.73 1081.52 2165.64 1089.25 2165.64Z" fill="#1E62CC"/>
<path d="M1090.73 2157.62C1095.44 2157.62 1099.26 2151.58 1099.26 2144.14C1099.26 2136.69 1095.44 2130.65 1090.73 2130.65C1086.02 2130.65 1082.2 2136.69 1082.2 2144.14C1082.2 2151.58 1086.02 2157.62 1090.73 2157.62Z" fill="#0D192B"/>
<path d="M1315.03 2176.68C1326.31 2176.68 1335.46 2162.22 1335.46 2144.38C1335.46 2126.54 1326.31 2112.07 1315.03 2112.07C1303.74 2112.07 1294.6 2126.54 1294.6 2144.38C1294.6 2162.22 1303.74 2176.68 1315.03 2176.68Z" fill="#0D192B"/>
<path d="M1295.23 2176.68C1306.51 2176.68 1315.66 2162.22 1315.66 2144.38C1315.66 2126.54 1306.51 2112.07 1295.23 2112.07C1283.94 2112.07 1274.8 2126.54 1274.8 2144.38C1274.8 2162.22 1283.94 2176.68 1295.23 2176.68Z" fill="#0D192B"/>
<path d="M1287.35 2174.07C1295.85 2180.7 1319.61 2177.69 1322.93 2174.26L1323.08 2114.67C1316.7 2109.09 1294.21 2109.29 1287.36 2114.37L1287.35 2174.07Z" fill="#0D192B"/>
<path d="M1293.3 2165.64C1301.03 2165.64 1307.3 2155.73 1307.3 2143.5C1307.3 2131.28 1301.03 2121.37 1293.3 2121.37C1285.57 2121.37 1279.3 2131.28 1279.3 2143.5C1279.3 2155.73 1285.57 2165.64 1293.3 2165.64Z" fill="#1E62CC"/>
<path d="M1294.78 2157.62C1299.49 2157.62 1303.31 2151.58 1303.31 2144.14C1303.31 2136.69 1299.49 2130.65 1294.78 2130.65C1290.07 2130.65 1286.25 2136.69 1286.25 2144.14C1286.25 2151.58 1290.07 2157.62 1294.78 2157.62Z" fill="#0D192B"/>
<path d="M1138.47 1679.68H1099.45V2086.07H1138.47V1679.68Z" fill="#0D192B"/>
<path d="M1347.89 2099.58C1347.94 2099.25 1348.19 2098.92 1348.19 2098.58C1348.19 2077.07 1241.82 2059.63 1110.61 2059.63C979.397 2059.63 873.026 2077.07 873.026 2098.58C873.026 2098.92 873.283 2099.25 873.333 2099.58H1347.89Z" fill="#1A56B3"/>
<path d="M1086.54 1800.31H1149.97V1722.96H1086.54V1800.31Z" fill="#1A56B3"/>
<path d="M1086.54 2072.59H1149.97V1995.23H1086.54V2072.59Z" fill="#1A56B3"/>
<path d="M999.771 1072.74V1072.82C998.932 1072.74 998.094 1072.74 997.256 1072.74H999.771Z" fill="#4A82DB"/>
<path d="M698.817 1111.14C698.817 1115 699.278 1118.98 700.242 1123.09L831.722 1631.28C832.309 1633.75 833.021 1636.18 833.944 1638.57C843.669 1677.31 878.965 1704.22 918.998 1703.13L1056.45 1699.56H1327.33C1343.72 1699.56 1358.48 1693.15 1369.17 1682.8C1379.9 1672.44 1386.57 1658.15 1386.57 1642.34C1386.57 1636.73 1385.69 1631.36 1384.01 1626.33C1376.42 1603.15 1352.61 1587.31 1325.74 1587.31C1325.74 1587.31 1203.92 1590.62 1168.42 1556.49C1132.87 1522.33 1052.78 1125.39 1052.78 1125.39C1045.99 1097.18 1017.45 1074.13 988.228 1072.83C987.348 1072.74 986.467 1072.74 985.629 1072.74C985.629 1072.74 801.729 1071.11 745.347 1071.36C741.071 1071.36 737.508 1071.4 734.825 1071.44C732.352 1071.49 730.801 1071.53 730.256 1071.57C730.13 1071.61 730.088 1071.61 730.088 1071.61C711.058 1075.81 698.817 1091.32 698.817 1111.14ZM871.756 1585.17H875.193L876.744 1591.92L874.564 1588.98L871.756 1585.17Z" fill="#9EDDFF"/>
<path d="M884.683 1699.75C884.632 1700 884.39 1700.25 884.39 1700.5C884.39 1716.67 985.807 1729.78 1110.91 1729.78C1236.02 1729.78 1337.44 1716.67 1337.44 1700.5C1337.44 1700.25 1337.19 1700 1337.15 1699.75H884.683Z" fill="#1A56B3"/>
<path d="M698.817 1111.14C698.817 1115 699.278 1118.98 700.242 1123.09L831.722 1631.28C832.309 1633.75 833.021 1636.18 833.944 1638.57C843.669 1677.31 878.965 1704.22 918.998 1703.13L1056.45 1699.56H1327.33C1343.72 1699.56 1358.48 1693.15 1369.17 1682.8C1379.9 1672.44 1386.57 1658.15 1386.57 1642.34C1386.57 1636.73 1385.69 1631.36 1384.01 1626.33C1368.5 1666.69 915.741 1669.52 884.259 1617.27C853.49 1590.57 787.644 1135.79 745.348 1071.36C741.072 1071.36 737.509 1071.4 734.826 1071.45C732.353 1071.49 730.802 1071.53 730.257 1071.57C730.131 1071.61 730.089 1071.61 730.089 1071.61C711.058 1075.81 698.817 1091.32 698.817 1111.14Z" fill="#61B8FF"/>
<path d="M927.391 1136.47C969.216 1105.31 1112.73 1081.11 1204.58 1124.17C1219.17 1137.99 1240.17 1188.16 1253.29 1235.31L1289.58 1628.89H979.057L927.391 1136.47Z" fill="#AAE0FF"/>
<path d="M1093.89 1154.73C1044.52 1161.91 1013.82 1127.46 1006.6 1113.05L1026.47 989.704L1066.64 1007.63C1083.06 1008.99 1099.47 1012.93 1113.58 1018.5L1126.32 1084.29L1129.13 1098.55C1135.54 1112.59 1143.26 1147.54 1093.89 1154.73Z" fill="#F7A594"/>
<path d="M1039.32 1021.03C1040.92 1036.29 1061.01 1098.14 1127.67 1091.71L1115.3 1027.37L1039.32 1021.03Z" fill="#E6836F"/>
<path d="M1194.5 943.959C1192.22 964.007 1186.66 1007.82 1178.93 1026.15C1167.17 1054.06 1130.78 1076.64 1107.02 1072.8C1080.22 1066.28 1048.07 1045.74 1034.88 1021.97C1028.71 1005.3 1018.68 967.403 1018.36 937.266C1017.69 874.405 1072.08 838.983 1123.86 844.858C1175.64 850.733 1201.62 881.459 1194.5 943.959Z" fill="#F7A594"/>
<path d="M1022.3 979.956C1018.27 957.969 1034.72 955.36 1044.94 974.901C1047.17 960.147 1045.51 914.066 1064.19 905.482C1085.42 895.372 1152.57 926.381 1203.48 900.452C1203.48 900.452 1196.91 829.726 1092.99 833.942C970.741 852.711 1022.3 979.956 1022.3 979.956Z" fill="#73382A"/>
<path d="M1030.64 996.37C1040.52 993.288 1045.3 980.408 1041.3 967.603C1037.31 954.798 1026.06 946.916 1016.18 949.998C1006.29 953.081 1001.52 965.96 1005.51 978.765C1009.5 991.57 1020.75 999.452 1030.64 996.37Z" fill="#F7A594"/>
<path d="M1155.36 1027.7C1151.37 1028.44 1144.36 1031.75 1137.44 1035.42C1127.38 1040.75 1117.53 1046.83 1117.53 1046.83C1117.53 1046.83 1087.78 1028.84 1088.6 999.967C1089 1000.41 1089.41 1000.84 1089.82 1001.27C1112.93 1025.09 1155.36 1027.7 1155.36 1027.7Z" fill="#A65B4A"/>
<path d="M1155.35 1027.7C1151.37 1028.44 1144.36 1031.75 1137.44 1035.42C1107.27 1028.52 1094.87 1012.3 1089.82 1001.27C1112.93 1025.09 1155.35 1027.7 1155.35 1027.7Z" fill="white"/>
<path d="M1153.76 1013.71C1147.72 1013.33 1143 1009.83 1142.93 1009.77C1142.39 1009.36 1142.28 1008.59 1142.69 1008.05C1143.1 1007.51 1143.88 1007.4 1144.42 1007.81C1144.81 1008.11 1154.26 1015.09 1162.82 1008.48C1167.52 1004.85 1166.29 1002.43 1163.02 995.937C1159.92 989.784 1155.23 980.486 1153.6 964.677C1153.53 964.001 1154.02 963.396 1154.7 963.328C1155.37 963.257 1155.98 963.75 1156.05 964.426C1157.63 979.783 1162.2 988.837 1165.22 994.83C1168.6 1001.52 1170.63 1005.56 1164.32 1010.43C1160.77 1013.18 1157.06 1013.91 1153.76 1013.71Z" fill="#A65B4A"/>
<path d="M1120.96 953.038C1120.67 957.665 1118.37 961.288 1115.82 961.131C1113.28 960.974 1111.44 957.096 1111.72 952.469C1112.01 947.842 1114.31 944.219 1116.86 944.376C1119.41 944.534 1121.24 948.412 1120.96 953.038Z" fill="#1E1E1E"/>
<path d="M1185.64 956.069C1185.38 960.284 1183.29 963.584 1180.97 963.441C1178.64 963.298 1176.97 959.765 1177.23 955.551C1177.49 951.337 1179.58 948.036 1181.91 948.179C1184.23 948.322 1185.9 951.854 1185.64 956.069Z" fill="#1E1E1E"/>
<path d="M1190.32 903.761C1190.32 903.761 1241.3 898.79 1225.37 849.05C1209.58 865.113 1193.52 857.259 1193.52 857.259C1193.52 857.259 1212.24 833.787 1181.28 799.432C1176.34 820.86 1133.81 830.288 1109.46 823.976C1070.91 813.981 1031.9 827.771 1027.76 864.979C1027.76 864.979 1002.53 871.129 1011.32 921.267C1050.27 919.898 1067.51 884.384 1096.24 879.239C1124.97 874.095 1149.41 909.547 1190.32 903.761Z" fill="#73382A"/>
<path d="M1141.09 1065.05C1141.09 1065.05 1122.9 1069.32 1112.9 1069.08C1099.7 1068.77 1078.83 1061.47 1078.83 1061.47L1113.47 1080L1141.09 1065.05Z" fill="#A65B4A"/>
<path d="M1107.23 1155.79L1102.33 1173.46L1137.31 1392.64L1118.84 1428.25L1085.91 1392.91L1091.35 1173.73L1083.41 1162.04L1092.69 1148.74L1107.23 1155.79Z" fill="#1951A6"/>
<path d="M1128.19 1092.07C1127.52 1118.1 1107.2 1132.88 1092.62 1147.71C1049.41 1136.43 1016.64 1109.96 1007.06 1085.44L986.676 1105.67C990.307 1137.32 1015.66 1170.04 1054.23 1203.4C1060.11 1186.43 1069.14 1170.81 1094.83 1156.77L1152.65 1173.23C1155.92 1150.74 1158.46 1129.78 1145.32 1103.35L1128.19 1092.07Z" fill="#61B8FF"/>
<path d="M1448.41 2174.18C1469.05 2174.18 1469.05 2140.62 1448.41 2140.62C1448.41 2140.62 1366.28 2117.7 1363.89 2117.7C1361.5 2117.7 1273.79 2120.16 1273.79 2120.16C1262.22 2136.22 1266.07 2158.91 1267.29 2176.36L1448.41 2174.18Z" fill="#73382A"/>
<path d="M981.03 2174.83C979.51 2157.45 977.044 2138.93 989.037 2123.13C1009.48 2115.61 1048.16 2098.24 1087.99 2120.7C1087.99 2120.7 1088.75 2131.94 1119.65 2144.7C1127.33 2153.43 1130.42 2162.21 1126.92 2174.83L981.03 2174.83Z" fill="#73382A"/>
<path d="M1270.49 2117.69L1357.12 1672.37L1101.39 1629.03L1101.4 1506.93C1101.4 1506.93 1300.96 1507.07 1298.19 1507.07C1289.42 1507.07 1485.81 1493.5 1513.32 1600.11C1540.83 1706.73 1374.08 2116.38 1374.08 2116.38C1350.26 2113.1 1295.4 2129.63 1274.94 2136.05C1257.45 2141.54 1252.65 2131.59 1270.49 2117.69Z" fill="#0D192B"/>
<path d="M1254.72 1507.07L1061.97 1664.44L1077.87 2119.81C1027.03 2091.76 971.315 2145.24 967.031 2139.08C967.031 2139.08 960.873 2136.14 971.104 2111.76C951.601 2013.74 880.525 1646.29 902.658 1605.43C928.227 1558.23 971.116 1504.3 971.116 1504.3L1254.72 1507.07Z" fill="#0D192B"/>
<path d="M991.942 1100.56C994.892 1112.36 1029.74 1462.25 1026.79 1515.35C1023.84 1568.46 894.459 1580.13 896.973 1689.42C899.643 1805.5 903.152 1855.79 903.152 1855.79C855.202 1848.78 829.473 1792.64 822.456 1754.05C811.441 1687.03 819.323 1610.86 869.237 1514.3C869.237 1514.3 882.566 1148.96 899.181 1137.14C928.823 1116.05 991.942 1100.56 991.942 1100.56Z" fill="white"/>
<path d="M965.96 1257.7C965.96 1257.7 949.36 1306.16 949.36 1326.24C949.36 1346.32 1046.55 1388.52 1046.55 1388.52H887.782V1313.39L965.96 1257.7Z" fill="#D9F1FF"/>
<path d="M1054.12 1403.56C1054.12 1403.56 1073.17 1386.35 1103.37 1383.95C1133.57 1381.56 1160.06 1439.03 1160.06 1439.03H1055.55L1054.12 1403.56Z" fill="#F7B28A"/>
<path d="M1111.39 1384.67C1111.39 1384.67 1158.92 1398.11 1165.56 1399.88C1168.66 1412.41 1135.95 1407 1120.81 1401.43C1104.14 1395.29 1111.39 1384.67 1111.39 1384.67Z" fill="#F7B28A"/>
<path d="M902.906 1133.49C873.879 1151.49 793.884 1340.11 793.122 1390.88C792.786 1413.26 802.171 1435.44 844.693 1438.17C868.177 1439.68 1067.48 1441.39 1067.48 1441.39L1064.95 1388.52L914.715 1345.64L960.605 1269.49C1015.49 1241.23 968.488 1098.46 902.906 1133.49Z" fill="white"/>
<path d="M1418.87 1132.66C1418.87 1132.66 1400.47 1087.64 1402.73 1075.38C1404.99 1063.11 1450.25 1047.26 1452.48 1052.7C1454.72 1058.15 1459.42 1071.58 1429.8 1079.66C1449.65 1097.95 1471.93 1134.4 1418.87 1132.66Z" fill="#F7A594"/>
<path d="M1416.48 1134.7C1416.48 1134.7 1412.72 1094.1 1419.31 1077.77C1428.07 1056.01 1453.98 1042.01 1453.98 1042.01C1453.98 1042.01 1499.8 1077.97 1501.21 1084.47C1502.61 1090.98 1464.44 1130.79 1464.44 1130.79C1464.44 1130.79 1436 1157.81 1416.48 1134.7Z" fill="#F7A594"/>
<path d="M1421.91 1081.44C1421.91 1081.44 1433.11 980.147 1449.07 983.087C1456.43 984.442 1446.07 1081.17 1446.07 1081.17L1421.91 1081.44Z" fill="#F7A594"/>
<path d="M1413.73 1119.89C1413.83 1119.92 1413.95 1119.92 1414.06 1119.88C1414.34 1119.78 1414.49 1119.47 1414.39 1119.19C1409.67 1105.94 1401.95 1082.65 1403.27 1075.47C1405.01 1066.01 1434.65 1053.58 1447.43 1052.25C1451.24 1051.85 1451.88 1052.65 1451.98 1052.91C1453.46 1056.5 1454.66 1060.8 1452.39 1065.41C1449.55 1071.18 1441.9 1075.8 1429.66 1079.14L1428.72 1079.4L1429.44 1080.06C1437.68 1087.65 1447.53 1099.6 1450.45 1110.35C1450.54 1110.64 1450.84 1110.81 1451.12 1110.74C1451.41 1110.66 1451.58 1110.36 1451.5 1110.07C1448.6 1099.4 1439.08 1087.64 1430.88 1079.92C1442.9 1076.52 1450.46 1071.8 1453.36 1065.89C1456.16 1060.21 1453.93 1054.8 1452.99 1052.49C1452.47 1051.26 1450.63 1050.82 1447.32 1051.17C1434.36 1052.52 1404.08 1065.05 1402.2 1075.28C1400.83 1082.7 1408.61 1106.21 1413.37 1119.55C1413.43 1119.72 1413.56 1119.85 1413.73 1119.89Z" fill="#E6836F"/>
<path d="M1468.81 1100.66C1468.96 1100.7 1469.11 1100.74 1469.27 1100.78L1469.64 1100.86L1469.85 1100.54C1476.35 1090.27 1491.87 1086.13 1492.02 1086.09C1492.31 1086.02 1492.49 1085.72 1492.41 1085.43C1492.34 1085.14 1492.04 1084.97 1491.75 1085.04C1491.1 1085.21 1475.99 1089.24 1469.14 1099.63C1469.13 1099.62 1469.11 1099.62 1469.1 1099.61C1459.36 1096.81 1445.68 1073.78 1445.54 1073.55C1445.39 1073.29 1445.05 1073.2 1444.79 1073.35C1444.53 1073.51 1444.45 1073.84 1444.6 1074.1C1445.18 1075.08 1458.65 1097.73 1468.81 1100.66Z" fill="#E6836F"/>
<path d="M1418.24 1121.68L1401.66 1184.92L1452.8 1201.33L1459.06 1129.12L1418.24 1121.68Z" fill="#F7A594"/>
<path d="M1261.49 1152.66L1366.06 1257.7L1412.58 1136.91L1473.44 1156.08C1473.44 1156.08 1472.7 1332.6 1419.89 1370.61C1339.02 1420.02 1200.45 1269.28 1200.45 1269.28C1146.25 1193.48 1229.07 1108.7 1261.49 1152.66Z" fill="white"/>
<path d="M1145.96 1104.93C1145.96 1104.93 1173.9 1488.7 1224.06 1521.16C1274.21 1553.61 1451.45 1531.51 1451.45 1531.51C1451.45 1531.51 1274.61 1468.15 1271.66 1420.94C1268.71 1373.74 1257.3 1148.74 1257.3 1148.74C1240.88 1128.58 1188.76 1104.7 1145.96 1104.93Z" fill="white"/>
<mask id="mask0_1_2" style="mask-type:luminance" maskUnits="userSpaceOnUse" x="906" y="1032" width="292" height="334">
<path d="M1128.2 1092.84L1139.52 1194.33C1139.52 1194.33 1088.16 1290.6 1122.02 1315.71C1155.88 1340.82 1187.08 1313.81 1196.21 1251.03C1205.34 1188.25 1171.48 1072.58 1141.42 1050.13C1111.37 1027.68 1002.17 1029.58 991.513 1042.52C980.859 1055.46 874.277 1293.87 916.268 1342.76C958.259 1391.64 1093.63 1347.14 1093.63 1347.14L1071.7 1205.5L1012.16 1163.51C1012.16 1163.51 1008.66 1086.47 1009.07 1087.69C1009.47 1088.91 1017.36 1049.94 1017.36 1049.94C1054.77 1039.13 1083.07 1037.79 1119.98 1052.69L1128.2 1092.84Z" fill="white"/>
</mask>
<g mask="url(#mask0_1_2)">
<path d="M1170.22 1288.04C1173.23 1271.72 1168.21 1257.12 1159.02 1255.42C1149.82 1253.73 1139.92 1265.58 1136.91 1281.89C1133.9 1298.21 1138.92 1312.81 1148.11 1314.51C1157.31 1316.21 1167.21 1304.36 1170.22 1288.04Z" fill="#1B658F"/>
<path d="M1154.26 1284C1152.3 1294.62 1155.57 1304.14 1161.56 1305.24C1167.55 1306.35 1174 1298.63 1175.96 1288C1177.92 1277.37 1174.66 1267.86 1168.66 1266.75C1162.67 1265.65 1156.22 1273.37 1154.26 1284Z" fill="#2997D6"/>
<path d="M1160.64 1262.97C1162.04 1262.97 1163.18 1261.87 1163.22 1260.46C1163.24 1259.88 1164.68 1200.91 1155.93 1139.18C1147.82 1082.03 1100.22 1054.36 1059.43 1052.84C1019.88 1051.36 989.379 1072.98 981.741 1107.9C974.867 1139.32 983.768 1192.94 984.15 1195.2C984.386 1196.61 985.712 1197.56 987.122 1197.32C988.526 1197.08 989.472 1195.75 989.236 1194.35C989.144 1193.8 980.12 1139.45 986.78 1109C993.859 1076.64 1022.33 1056.63 1059.23 1058C1097.96 1059.44 1143.13 1085.69 1150.82 1139.91C1159.51 1201.2 1158.08 1259.75 1158.07 1260.33C1158.03 1261.75 1159.15 1262.94 1160.58 1262.98C1160.6 1262.97 1160.62 1262.97 1160.64 1262.97Z" fill="#0D192B"/>
<path d="M961.899 1342.8L978.271 1340.7C979.683 1340.52 980.682 1339.23 980.5 1337.81C980.318 1336.4 979.022 1335.4 977.613 1335.58L965.222 1337.18C948.398 1293.63 947.433 1246.85 962.99 1222.85C970.661 1211.02 981.981 1204.7 996.636 1204.09C1010.38 1203.5 1022.48 1208.05 1032.63 1217.57C1063.56 1246.58 1068.53 1313.47 1069.25 1327.83L1059.88 1327.47C1058.48 1327.38 1057.25 1328.53 1057.2 1329.95C1057.15 1331.37 1058.25 1332.57 1059.68 1332.62L1074.58 1333.19L1074.52 1330.46C1074.45 1327.09 1072.32 1247.73 1036.17 1213.82C1024.96 1203.3 1011.58 1198.29 996.42 1198.93C979.999 1199.63 967.296 1206.73 958.663 1220.05C950.014 1233.39 945.931 1252.6 946.855 1275.62C947.7 1296.67 952.78 1319.87 961.16 1340.94L961.899 1342.8Z" fill="#0D192B"/>
<path d="M1006.72 1195.53L1006.58 1208.25C1006.58 1208.25 992.138 1202.54 977.714 1211.87C974.024 1206.77 971.423 1202.93 971.423 1202.93C971.423 1202.93 982.958 1190.44 1006.72 1195.53Z" fill="#1B658F"/>
<path d="M995.904 1200.01L993.128 1185.54C989.095 1183.34 980.454 1185.67 979.137 1188.82L982.337 1202.91L995.904 1200.01Z" fill="#1B658F"/>
</g>
<path d="M1202.92 1388.85C1219.73 1387.13 1255.05 1365.19 1263.47 1357.93L1366.06 1440.89H1207.11L1202.92 1388.85Z" fill="#2B7EAB"/>
<path d="M1351.06 1441.14C1346.75 1441.14 1218.29 1362.77 1218.29 1362.77C1190.05 1386.12 1160.51 1397.48 1130.64 1405.88C1139.37 1423.21 1152.15 1434.9 1166.4 1441.4L1351.06 1441.14Z" fill="#69BFF0"/>
<path d="M712.149 1440.84H870.647V1416.2H712.149V1440.84Z" fill="#BAE7FF"/>
<path d="M577.211 1440.84H712.149V1416.2H577.211V1440.84Z" fill="#69BFF0"/>
<path d="M849.228 1424.23H722.323L781.224 1436.02L849.228 1424.23Z" fill="#69BFF0"/>
<path d="M787.708 1471.06H761.075V2169.48H787.708V1471.06Z" fill="#1951A6"/>
<path d="M787.708 1471.34H761.075V1531.29H787.708V1471.34Z" fill="#1951A6"/>
<path d="M1967.12 2172.4H1993.76V2051.14H1967.12V2172.4Z" fill="#1951A6"/>
<path d="M1806.82 2172.4H1833.46V2051.14H1806.82V2172.4Z" fill="#1951A6"/>
<path d="M535.861 1463.59V2173.39L510.532 2169.37V1463.59H535.861Z" fill="#1951A6"/>
<path d="M1472.92 2172.4H1499.55V2051.14H1472.92V2172.4Z" fill="#1951A6"/>
<path d="M1612.76 2172.4H1639.39V2051.14H1612.76V2172.4Z" fill="#1951A6"/>
<path d="M437.704 1471L1723.58 1471V1441L437.704 1441V1471Z" fill="#1951A6"/>
<path d="M1627.78 1468.43H1463.19V2053.06H1627.78V1468.43Z" fill="#1951A6"/>
<path d="M2009.82 1468.43H1604.93V2053.06H2009.82V1468.43Z" fill="#1951A6"/>
<path d="M1998.82 1488.72H1625.08V2053.06H1998.82V1488.72Z" fill="#66A1FF"/>
<path d="M724.534 1471L2010.41 1471V1441L724.534 1441V1471Z" fill="#66A1FF"/>
<path d="M1783.84 1441H1854.78L1840.8 1319.69H1769.85L1783.84 1441Z" fill="#ADADAD"/>
<path d="M1763.2 1319.69L1763.25 1320.18L1770.81 1385.71L1777.18 1440.99H1848.13L1835.13 1328.21L1835.09 1327.87L1834.15 1319.69H1763.2Z" fill="#474747"/>
<path d="M1680.72 1440.77H1906.07V1428.34H1680.72V1440.77Z" fill="#ADADAD"/>
<path d="M1845.33 1428.34H1664.98V1440.77H1845.33V1428.34Z" fill="#474747"/>
<path d="M1763.25 1320.18L1770.81 1385.71L1835.13 1328.21L1835.46 1327.92L1835.09 1327.87L1763.25 1320.18Z" fill="#2B2B2B"/>
<path d="M1582.52 1327.49H1967.48C1975.86 1327.49 1983.22 1320.69 1983.91 1312.3L2005.9 1044.91C2006.59 1036.53 2000.35 1029.73 1991.97 1029.73H1607C1598.62 1029.73 1591.26 1036.53 1590.57 1044.91L1568.58 1312.3C1567.89 1320.69 1574.13 1327.49 1582.52 1327.49Z" fill="#ADADAD"/>
<path d="M1575.38 1327.15H1960.35C1968.73 1327.15 1976.09 1320.35 1976.78 1311.97L1998.77 1044.58C1999.46 1036.19 1993.22 1029.4 1984.83 1029.4H1599.87C1591.49 1029.4 1584.13 1036.19 1583.44 1044.58L1561.45 1311.97C1560.76 1320.36 1567 1327.15 1575.38 1327.15Z" fill="#474747"/>
<path d="M1583.84 1305.28H1957.62L1977.98 1050.25H1604.2L1583.84 1305.28Z" fill="#D9F3FF"/>
<path d="M1614.33 1428.34H1496.5V1440.77H1614.33V1428.34Z" fill="#ADADAD"/>
<path d="M1373.24 1435.98V1440.77H1496.5V1428.34L1373.24 1435.98Z" fill="#474747"/>
<path d="M1649.93 1261.11L1906.22 1258.01C1916.99 1257.88 1926.38 1248.76 1927.19 1237.64L1936.74 1106.48C1937.55 1095.36 1929.47 1086.45 1918.7 1086.58L1662.41 1089.68C1651.64 1089.81 1642.25 1098.93 1641.44 1110.05L1631.89 1241.21C1631.08 1252.33 1639.16 1261.24 1649.93 1261.11Z" fill="#80B2FF"/>
<path d="M1672.11 1144.16L1747.37 1143.25C1749.74 1143.22 1751.81 1141.21 1751.99 1138.77C1752.17 1136.32 1750.39 1134.36 1748.02 1134.39L1672.75 1135.3C1670.38 1135.33 1668.31 1137.33 1668.14 1139.78C1667.96 1142.23 1669.74 1144.19 1672.11 1144.16Z" fill="#D9F3FF"/>
<path d="M1670.34 1168.37L1770.62 1167.16C1772.99 1167.13 1775.06 1165.12 1775.24 1162.68C1775.42 1160.23 1773.64 1158.27 1771.27 1158.3L1670.99 1159.51C1668.62 1159.54 1666.55 1161.54 1666.37 1163.99C1666.2 1166.44 1667.97 1168.4 1670.34 1168.37Z" fill="#D9F3FF"/>
<path d="M1668.27 1196.89L1768.55 1195.68C1770.92 1195.65 1772.99 1193.64 1773.16 1191.19C1773.34 1188.74 1771.56 1186.78 1769.19 1186.81L1668.91 1188.02C1666.54 1188.05 1664.48 1190.06 1664.3 1192.51C1664.12 1194.95 1665.9 1196.92 1668.27 1196.89Z" fill="#D9F3FF"/>
<path d="M1666.19 1225.4L1766.47 1224.19C1768.84 1224.16 1770.91 1222.15 1771.09 1219.71C1771.26 1217.26 1769.49 1215.3 1767.12 1215.33L1666.84 1216.54C1664.47 1216.57 1662.4 1218.57 1662.22 1221.02C1662.04 1223.47 1663.82 1225.43 1666.19 1225.4Z" fill="#D9F3FF"/>
<path d="M1861.92 1145.95C1854.14 1152.65 1848.67 1201.07 1858.77 1214.66C1863.4 1220.89 1871.38 1220.95 1878.32 1222.7C1886.52 1224.78 1893.12 1233.95 1896.53 1229.59C1902.83 1221.55 1904.35 1189.24 1893.88 1168.35C1890.24 1161.07 1869.7 1139.25 1861.92 1145.95Z" fill="#D9F3FF"/>
<path d="M1829.5 1145.95C1837.28 1152.65 1842.75 1201.07 1832.65 1214.66C1828.02 1220.89 1820.04 1220.95 1813.1 1222.7C1804.9 1224.78 1798.3 1233.95 1794.89 1229.59C1788.59 1221.55 1787.07 1189.24 1797.54 1168.35C1801.18 1161.07 1821.72 1139.25 1829.5 1145.95Z" fill="#D9F3FF"/>
<path d="M1841.5 1164.49V1113.22H1848.77V1163.74H1848.78C1848.78 1164.16 1849 1174.05 1859.01 1176.25L1857.8 1181.74C1851.15 1180.28 1847.31 1176.24 1845.24 1172.1C1843.23 1176.37 1839.36 1180.61 1832.49 1182.13L1831.28 1176.64C1840.33 1174.64 1841.38 1166.37 1841.5 1164.49Z" fill="#D9F3FF"/>
<path d="M2025.05 2134.98H2051.84V2085.12H2025.05V2134.98Z" fill="#0D192B"/>
<path d="M2225.95 2134.98H2252.74V2085.12H2225.95V2134.98Z" fill="#0D192B"/>
<path d="M2450.49 2134.98H2477.28V2085.12H2450.49V2134.98Z" fill="#0D192B"/>
<path d="M2457.24 2167.13C2468.52 2167.13 2477.67 2152.66 2477.67 2134.82C2477.67 2116.98 2468.52 2102.52 2457.24 2102.52C2445.95 2102.52 2436.81 2116.98 2436.81 2134.82C2436.81 2152.66 2445.95 2167.13 2457.24 2167.13Z" fill="#0D192B"/>
<path d="M2437.44 2167.13C2448.72 2167.13 2457.87 2152.66 2457.87 2134.82C2457.87 2116.98 2448.72 2102.52 2437.44 2102.52C2426.15 2102.52 2417.01 2116.98 2417.01 2134.82C2417.01 2152.66 2426.15 2167.13 2437.44 2167.13Z" fill="#0D192B"/>
<path d="M2429.56 2164.51C2438.06 2171.15 2461.82 2168.14 2465.14 2164.71L2465.29 2105.12C2458.92 2099.54 2436.42 2099.74 2429.57 2104.81L2429.56 2164.51Z" fill="#0D192B"/>
<path d="M2435.51 2156.08C2443.24 2156.08 2449.51 2146.17 2449.51 2133.95C2449.51 2121.72 2443.24 2111.81 2435.51 2111.81C2427.78 2111.81 2421.51 2121.72 2421.51 2133.95C2421.51 2146.17 2427.78 2156.08 2435.51 2156.08Z" fill="#1E62CC"/>
<path d="M2436.99 2148.07C2441.7 2148.07 2445.52 2142.03 2445.52 2134.58C2445.52 2127.13 2441.7 2121.09 2436.99 2121.09C2432.28 2121.09 2428.46 2127.13 2428.46 2134.58C2428.46 2142.03 2432.28 2148.07 2436.99 2148.07Z" fill="#0D192B"/>
<path d="M2243.38 2167.13C2254.66 2167.13 2263.81 2152.66 2263.81 2134.82C2263.81 2116.98 2254.66 2102.52 2243.38 2102.52C2232.1 2102.52 2222.95 2116.98 2222.95 2134.82C2222.95 2152.66 2232.1 2167.13 2243.38 2167.13Z" fill="#0D192B"/>
<path d="M2263.18 2167.13C2274.46 2167.13 2283.61 2152.66 2283.61 2134.82C2283.61 2116.98 2274.46 2102.52 2263.18 2102.52C2251.9 2102.52 2242.75 2116.98 2242.75 2134.82C2242.75 2152.66 2251.9 2167.13 2263.18 2167.13Z" fill="#0D192B"/>
<path d="M2271.06 2164.51C2262.56 2171.15 2238.8 2168.14 2235.48 2164.71L2235.33 2105.12C2241.7 2099.54 2264.2 2099.74 2271.05 2104.81L2271.06 2164.51Z" fill="#0D192B"/>
<path d="M2265.11 2156.08C2272.84 2156.08 2279.11 2146.17 2279.11 2133.95C2279.11 2121.72 2272.84 2111.81 2265.11 2111.81C2257.37 2111.81 2251.11 2121.72 2251.11 2133.95C2251.11 2146.17 2257.37 2156.08 2265.11 2156.08Z" fill="#1E62CC"/>
<path d="M2263.62 2148.07C2268.34 2148.07 2272.16 2142.03 2272.16 2134.58C2272.16 2127.13 2268.34 2121.09 2263.62 2121.09C2258.91 2121.09 2255.09 2127.13 2255.09 2134.58C2255.09 2142.03 2258.91 2148.07 2263.62 2148.07Z" fill="#0D192B"/>
<path d="M2039.33 2167.13C2050.61 2167.13 2059.76 2152.66 2059.76 2134.82C2059.76 2116.98 2050.61 2102.52 2039.33 2102.52C2028.04 2102.52 2018.9 2116.98 2018.9 2134.82C2018.9 2152.66 2028.04 2167.13 2039.33 2167.13Z" fill="#0D192B"/>
<path d="M2059.13 2167.13C2070.41 2167.13 2079.56 2152.66 2079.56 2134.82C2079.56 2116.98 2070.41 2102.52 2059.13 2102.52C2047.84 2102.52 2038.7 2116.98 2038.7 2134.82C2038.7 2152.66 2047.84 2167.13 2059.13 2167.13Z" fill="#0D192B"/>
<path d="M2067 2164.51C2058.51 2171.15 2034.75 2168.14 2031.43 2164.71L2031.28 2105.12C2037.65 2099.54 2060.15 2099.74 2067 2104.81L2067 2164.51Z" fill="#0D192B"/>
<path d="M2061.05 2156.08C2068.79 2156.08 2075.05 2146.17 2075.05 2133.95C2075.05 2121.72 2068.79 2111.81 2061.05 2111.81C2053.32 2111.81 2047.06 2121.72 2047.06 2133.95C2047.06 2146.17 2053.32 2156.08 2061.05 2156.08Z" fill="#1E62CC"/>
<path d="M2059.57 2148.07C2064.28 2148.07 2068.1 2142.03 2068.1 2134.58C2068.1 2127.13 2064.28 2121.09 2059.57 2121.09C2054.86 2121.09 2051.04 2127.13 2051.04 2134.58C2051.04 2142.03 2054.86 2148.07 2059.57 2148.07Z" fill="#0D192B"/>
<path d="M2215.89 2076.52H2254.91V1670.12H2215.89V2076.52Z" fill="#0D192B"/>
<path d="M2006.47 2090.03C2006.41 2089.7 2006.16 2089.37 2006.16 2089.03C2006.16 2067.52 2112.53 2050.08 2243.75 2050.08C2374.96 2050.08 2481.33 2067.52 2481.33 2089.03C2481.33 2089.37 2481.07 2089.7 2481.02 2090.03H2006.47Z" fill="#1A56B3"/>
<path d="M2267.81 1713.4H2204.38V1790.76H2267.81V1713.4Z" fill="#1A56B3"/>
<path d="M2267.81 1985.68H2204.38V2063.03H2267.81V1985.68Z" fill="#1A56B3"/>
<path d="M2354.58 1063.19V1063.27C2355.42 1063.19 2356.26 1063.19 2357.1 1063.19H2354.58Z" fill="#4A82DB"/>
<path d="M2624.27 1062.06C2624.27 1062.06 2624.22 1062.06 2624.1 1062.02C2623.55 1061.98 2622 1061.93 2619.53 1061.89C2616.85 1061.85 2613.28 1061.81 2609.01 1061.81C2552.63 1061.56 2368.73 1063.19 2368.73 1063.19C2367.89 1063.19 2367.01 1063.19 2366.13 1063.28C2336.91 1064.58 2308.36 1087.63 2301.57 1115.84C2301.57 1115.84 2221.48 1512.78 2185.94 1546.94C2150.43 1581.07 2028.61 1577.75 2028.61 1577.75C2001.74 1577.75 1977.93 1593.6 1970.34 1616.78C1968.67 1621.81 1967.79 1627.18 1967.79 1632.79C1967.79 1648.6 1974.45 1662.89 1985.18 1673.25C1995.87 1683.6 2010.63 1690.01 2027.02 1690.01H2297.9L2473.74 1693.58C2513.78 1694.67 2549.07 1667.76 2558.8 1629.02C2559.72 1626.63 2560.43 1624.2 2561.02 1621.73L2654.11 1113.54C2655.08 1109.43 2655.54 1105.45 2655.54 1101.59C2655.54 1081.76 2643.3 1066.25 2624.27 1062.06ZM2518.18 1579.43L2516 1582.36L2517.55 1575.62H2520.99L2518.18 1579.43Z" fill="#9EDDFF"/>
<path d="M2508.06 1690.19C2508.11 1690.45 2508.35 1690.69 2508.35 1690.95C2508.35 1707.12 2368.55 1720.22 2243.44 1720.22C2118.33 1720.22 2016.92 1707.12 2016.92 1690.95C2016.92 1690.69 2017.16 1690.45 2017.21 1690.19H2508.06Z" fill="#1A56B3"/>
<path d="M2655.54 1101.59C2655.54 1105.45 2655.08 1109.43 2654.11 1113.54C2650.6 1123.7 2563.67 1619.57 2558.8 1629C2549.07 1667.75 2513.78 1694.66 2473.75 1693.57C2369.65 1690.21 2133.15 1689.38 2027.02 1690.01C1989.19 1690.79 1958.36 1653.14 1970.34 1616.78C1957.28 1678.42 2465.29 1685.98 2518.49 1605.18C2556.34 1576.87 2535.41 1038.79 2624.25 1062.05C2643.3 1066.25 2655.54 1081.76 2655.54 1101.59Z" fill="#61B8FF"/>
<path d="M2378.68 1052.94C2428.51 1403.78 2095.64 1353.06 2105.27 1211.84C2113.57 1090.18 2187.19 1075.95 2168.01 996.174C2146.95 908.611 2178.12 832.005 2261.12 832.005C2342.4 832.005 2391.06 891.235 2373.7 994.239C2370.26 1014.67 2376.57 1036.01 2378.68 1052.94Z" fill="#0E0E0E"/>
<path d="M2066.73 2035.14C2067.34 2038.62 2078.85 2105.88 2078.85 2105.88L2125.11 2101.91L2131.82 2019.49L2066.73 2035.14Z" fill="#FFA599"/>
<path d="M2361.11 1476.65C2361.11 1476.65 2399.82 1585.42 2335.83 1604.06C2271.85 1622.7 2164.8 1629.77 2164.8 1629.77L2130.23 2060.05C2117.41 2065.15 2103.68 2069.69 2071.71 2063.17C2071.71 2063.17 1992.95 1630.03 2015.67 1578.11C2038.38 1526.18 2216.09 1473.38 2216.09 1473.38L2361.11 1476.65Z" fill="#0D192B"/>
<path d="M2139.08 2113.15C2135.64 2121.99 2108.98 2134.55 2079.14 2143.71C2058.75 2149.98 2036.87 2154.65 2019.91 2155.46C2009.32 2155.97 2000.65 2154.98 1995.46 2151.92C1995.46 2151.92 1982.29 2117.86 2011.55 2099.09C2040.8 2080.31 2073.82 2076.56 2073.82 2076.56C2078.04 2082.59 2084.89 2086.55 2093.35 2087.54C2099.01 2088.2 2105.4 2087.53 2112.21 2085.26C2117.68 2083.44 2123.42 2080.59 2129.27 2076.56C2129.27 2076.56 2131.94 2079.37 2134.69 2083.97C2134.97 2084.42 2135.24 2084.88 2135.51 2085.36C2139.34 2092.26 2142.87 2102.44 2139.08 2113.15Z" fill="white"/>
<path d="M2136.89 2083.93L2135.51 2085.36L2079.14 2143.71C2058.75 2149.98 2036.87 2154.65 2019.91 2155.46C2018.75 2144.73 2019.23 2121.99 2039.94 2105.88C2052.7 2095.96 2073.97 2090.52 2093.35 2087.54C2100 2086.52 2106.43 2085.78 2112.21 2085.26C2122.61 2084.32 2130.92 2084.04 2134.69 2083.97C2136.11 2083.93 2136.89 2083.93 2136.89 2083.93Z" fill="#DBF2FF"/>
<path d="M2110.13 2045.75C2110.74 2049.23 2115.69 2116.45 2115.69 2116.45L2155.41 2115.94L2166.79 2044.36L2110.13 2045.75Z" fill="#FFA599"/>
<path d="M2163.17 2072.69C2163.17 2072.69 2177.1 2099.67 2180.19 2106.52C2164.64 2151.92 2058.41 2187.25 2047.43 2173.63C2047.43 2173.63 2027.62 2142.95 2052.46 2118.63C2077.29 2094.31 2113.19 2083.05 2113.19 2083.05C2125.01 2094.19 2155.95 2091.15 2163.17 2072.69Z" fill="white"/>
<path d="M2466.44 1492.03C2466.44 1492.03 2487.39 1586.79 2407.6 1612.48C2344.16 1632.9 2235.12 1674.56 2235.12 1674.56L2165.89 2060.16C2162.98 2068.36 2116.86 2071.41 2111 2064.82C2111 2064.82 2094.93 1640.35 2126.83 1593.5C2175.81 1521.57 2242.21 1477.61 2242.21 1477.61C2309.4 1469.9 2407.38 1462.7 2466.44 1492.03Z" fill="#0D192B"/>
<path d="M2109.43 2064.89C2108.68 2047.83 2091.31 1646.23 2125.5 1592.65C2134.39 1578.73 2145.09 1564.69 2157.3 1550.93L2159.65 1553.02C2147.55 1566.66 2136.95 1580.56 2128.16 1594.34C2094.49 1647.09 2112.39 2060.58 2112.58 2064.75L2109.43 2064.89Z" fill="#2A518C"/>
<path d="M2205.26 1139.75C2238.07 1099.5 2262.52 1123.45 2261.06 1168.68C2259.61 1213.91 2229.05 1410.99 2192.45 1397.44C2155.86 1383.9 2164.08 1190.27 2205.26 1139.75Z" fill="#FFA599"/>
<path d="M2229.66 1314.65L2207.66 1468.17C2209.81 1476.06 2221.71 1482.74 2239.53 1487.99C2242.35 1488.83 2245.31 1489.62 2248.41 1490.38C2248.41 1490.38 2248.42 1490.39 2248.42 1490.38C2309.14 1505.27 2420.86 1506.16 2469.39 1486.81C2469.39 1486.81 2465.62 1460.82 2450.15 1419.11C2438.39 1387.42 2419.87 1346.65 2391.11 1301.31C2389.29 1287.86 2400.64 1264.11 2412 1236.89C2430.09 1193.54 2448.19 1141.36 2413.08 1107.84C2355.93 1053.24 2206.41 1068.73 2196.58 1176.74C2195.08 1246.61 2229.66 1314.65 2229.66 1314.65Z" fill="#FD5655"/>
<path d="M2231.55 1498.72C2232.58 1498.55 2238.73 1495.37 2248.41 1490.38C2248.41 1490.38 2248.42 1490.39 2248.42 1490.38C2289.79 1469.08 2395.87 1414.62 2445.21 1419.03C2446.96 1419.18 2448.6 1419.21 2450.15 1419.11C2438.39 1387.42 2419.88 1346.65 2391.11 1301.31C2389.29 1287.86 2400.64 1264.11 2412 1236.89L2347.42 1163.58C2347.42 1163.58 2347.65 1165.25 2348.05 1168.27C2351.5 1194.68 2367.9 1324.72 2359.05 1345.71C2350.94 1364.92 2266.42 1456.43 2239.53 1487.99C2233.69 1494.86 2230.57 1498.88 2231.55 1498.72Z" fill="#E64847"/>
<path d="M2247.38 1116.83C2249.27 1129.83 2266 1164.37 2266 1164.37C2266 1164.37 2335.27 1121.34 2332.8 1104.39L2321.56 1058.95L2314.23 1029.4L2243.66 1039.67L2246.09 1090.15L2247.38 1116.83Z" fill="#FFA599"/>
<path d="M2246.09 1090.15L2295.4 1057.15L2243.66 1039.67L2246.09 1090.15Z" fill="#E87C5D"/>
<path d="M2181.54 947.5C2177.55 1010.71 2213.33 1062.84 2261.45 1063.94C2309.57 1065.04 2347.7 1014.61 2346.61 951.281C2345.59 891.624 2309.74 844.937 2266.49 843.946C2223.24 842.956 2185.29 887.952 2181.54 947.5Z" fill="#FFA599"/>
<path d="M2240.63 903.102C2300.72 980.127 2387.28 949.506 2367.33 903.437C2367.33 903.437 2344.14 839.976 2274.02 838.945C2186.34 837.655 2240.63 903.102 2240.63 903.102Z" fill="#0E0E0E"/>
<path d="M2257.45 993.742C2255.2 993.69 2253.03 993.159 2251.79 991.602C2248.75 987.771 2256.94 969.043 2258.61 965.327C2258.82 964.862 2259.37 964.656 2259.84 964.863C2260.3 965.073 2260.51 965.62 2260.3 966.086C2256.33 974.898 2251.52 988.283 2253.24 990.451C2255.25 992.984 2262.18 991.555 2264.68 990.79C2265.16 990.64 2265.68 990.914 2265.83 991.403C2265.98 991.891 2265.7 992.408 2265.22 992.558C2264.58 992.753 2260.93 993.821 2257.45 993.742Z" fill="#BD4A31"/>
<path d="M2244.45 1015.47C2244.45 1015.47 2271.27 1023.66 2306.67 1005.35C2287.2 1033.42 2261.73 1050.94 2244.45 1015.47Z" fill="#BD4A31"/>
<path d="M2301.34 958.9C2301.23 963.557 2299.28 967.289 2296.97 967.237C2294.66 967.184 2292.88 963.366 2292.99 958.709C2293.09 954.052 2295.05 950.32 2297.36 950.373C2299.66 950.425 2301.45 954.243 2301.34 958.9Z" fill="#0E0E0E"/>
<path d="M2220.83 955.214C2220.73 959.871 2218.77 963.603 2216.46 963.55C2214.16 963.497 2212.37 959.679 2212.48 955.022C2212.58 950.365 2214.54 946.633 2216.85 946.685C2219.15 946.739 2220.94 950.557 2220.83 955.214Z" fill="#0E0E0E"/>
<path d="M2240.24 888.541C2240.24 888.541 2229.57 947.137 2179.97 951.024C2146.79 953.624 2195.06 853.999 2226.64 855.938C2245.27 857.083 2240.24 888.541 2240.24 888.541Z" fill="#0E0E0E"/>
<path d="M2424.4 1130.98C2424.4 1130.98 2398.61 1102.93 2357.1 1134.13C2323.12 1159.67 2380.55 1322.45 2380.55 1322.45L2211.15 1483.27L2224.13 1499.63C2224.13 1499.63 2426.86 1414.63 2452.67 1347.45C2461.52 1304.92 2444.32 1160.67 2424.4 1130.98Z" fill="#FFA599"/>
<path d="M2227.81 1338.81L2237.01 1497.8L2215.14 1501.46C2215.14 1501.46 2167.83 1392.34 2169.98 1330.71C2171.86 1276.7 2234.38 1289.61 2227.81 1338.81Z" fill="#FFA599"/>
<path d="M2239.21 1487.91C2239.21 1487.91 2263.19 1502.26 2251.65 1511.98C2240.11 1521.7 2198.53 1521.13 2210.41 1495.25C2222.29 1469.37 2239.21 1487.91 2239.21 1487.91Z" fill="#FFA599"/>
<path d="M2211.03 1480.57C2209.16 1480.2 2167.5 1509.76 2180.05 1522.59C2192.61 1535.42 2255.41 1496.93 2242.99 1481.24C2230.57 1465.56 2211.03 1480.57 2211.03 1480.57Z" fill="#FFA599"/>
</g>
<defs>
<clipPath id="clip0_1_2">
<rect width="3500" height="2183" fill="white"/>
</clipPath>
</defs>
</svg>
